<svg xmlns="http://www.w3.org/2000/svg" width="16" height="16" fill="none" viewBox="0 0 16 16">
  <g clip-path="url(#a)">
    <path stroke="#B080F8" stroke-linecap="round" d="M12.7 3.14c3.95-2.57 3.24 4.61-1.18 8.04-2.67 2.07-2.4-2.7.8-4.42"/>
    <path fill="url(#b)" d="M4.03 8.89c-.34.53-.02.98.57 1.29 1.16.61 2.08-.86.93-1.5-.57-.33-1.15-.33-1.5.2Z"/>
    <path fill="url(#c)" d="M12.35 2.2C7.37 4.05 3.01 8.07 1.67 10.87c-.56 1.17.59 3.01 1.87 3.2 1.5.21 2.66-.63 3.27-2.17a18.8 18.8 0 0 1 6.47-8.25c.56-.5-.1-1.76-.93-1.45Z"/>
    <path fill="url(#d)" d="M4.4 7.83a.53.53 0 0 1 .42-.05c.13.05.1.22 0 .32l-.14.18c-.1.17-.35.36-.45.18-.13-.2-.05-.5.18-.63Z"/>
    <path fill="url(#e)" d="M.14 10.36c-.04.63.45.87 1.12.86 1.31-.01 1.4-1.74.1-1.76-.66 0-1.17.27-1.22.9Z"/>
    <path fill="url(#f)" d="M12.52 2.42c.27-.07.53-.1.62-.04.08.05.22.26.3.46-.21-.12-.52-.14-.8-.12-.5.04-.6-.18-.12-.3Z"/>
  </g>
  <defs>
    <linearGradient id="b" x1="6.91" x2="4.04" y1="10.27" y2="9.56" gradientUnits="userSpaceOnUse">
      <stop stop-color="#636363"/>
      <stop offset="1" stop-color="#9E9E9E"/>
    </linearGradient>
    <linearGradient id="c" x1="14.89" x2="5.34" y1="1.98" y2="11.94" gradientUnits="userSpaceOnUse">
      <stop stop-color="#5A5A5A"/>
      <stop offset="0" stop-color="#6C6C6C"/>
      <stop offset="1" stop-color="#F4F2F1"/>
    </linearGradient>
    <linearGradient id="e" x1="3.32" x2=".47" y1="10.2" y2="10.95" gradientUnits="userSpaceOnUse">
      <stop stop-color="#636363"/>
      <stop offset="1" stop-color="#9E9E9E"/>
    </linearGradient>
    <linearGradient id="f" x1="11.99" x2="13.32" y1="3.3" y2="2.74" gradientUnits="userSpaceOnUse">
      <stop stop-color="#242424"/>
      <stop offset="1" stop-color="#4D4D4D"/>
    </linearGradient>
    <radialGradient id="d" cx="0" cy="0" r="1" gradientTransform="matrix(.58757 -.3416 .37569 .65269 4.51 8.3)" gradientUnits="userSpaceOnUse">
      <stop stop-color="#121212"/>
      <stop offset="1" stop-color="#636363"/>
    </radialGradient>
    <clipPath id="a">
      <path fill="#fff" d="M0 0h16v16H0z"/>
    </clipPath>
  </defs>
</svg>
