<svg xmlns="http://www.w3.org/2000/svg" width="1024" height="512" fill="none" viewBox="0 0 1024 512">
  <path fill="url(#a)" d="M76.46 53.35c-.64-1.1-2-1.52-3.02-.92-.19.1-.23.35-.13.55a6.16 6.16 0 0 1 .57 2.65c-.01.49.2 1.03.7 1.07.4.03.8-.05 1.18-.27 1.02-.59 1.34-1.97.7-3.08Z"/>
  <path fill="url(#b)" d="M51.5 53.46c.64-1.11 2-1.53 3.02-.94.24.14.28.45.17.7a6.3 6.3 0 0 0-.51 2.51c.01.47-.18.98-.64 1.05-.45.07-.92 0-1.33-.25-1.03-.59-1.34-1.97-.7-3.07Z"/>
  <path fill="url(#c)" d="M43.81 70.73c1.06 3.45 7.14 1.2 12.44-1.8a1.7 1.7 0 0 0-.71-3.22c-7.94-.57-12.87 1.32-11.73 5.02Z"/>
  <path fill="url(#d)" d="M84.13 70.41c-1.03 3.46-7.13 1.26-12.45-1.7a1.7 1.7 0 0 1 .68-3.22c7.94-.64 12.88 1.21 11.77 4.92Z"/>
  <path fill="url(#e)" d="M64 7.97c1.98 0 3.86 1.33 4 3.33 1.2 16.47 8.5 36.82 8.5 58.5 0 7.84-6.3 13.54-12.22 13.19l-.28-.02-.28.02c-5.92.35-12.22-5.35-12.22-13.2 0-21.67 7.31-42.02 8.5-58.49.15-2 2.02-3.33 4-3.33Z"/>
  <path fill="url(#f)" d="M211.63 67.68c-.47 3.74-8.11 3.13-13.98 1.44-1.42-.4-1.7-2.16-.4-2.86 6.21-3.28 14.85-2.42 14.38 1.42Z"/>
  <path fill="url(#g)" d="M194.6 10.07c-6.94 21.48-14.8 42.8-13.61 59.87.28 4.14 5.3 10.96 11.93 10.96 8.23 0 13.63-3.15 11.71-14.09-3.19-18.1-3.1-40.08-2.2-55.3.21-3.59-6.6-5.23-7.83-1.44Z"/>
  <path fill="url(#h)" d="M194.51 10.4c.12-.49.34-1 .67-1.37a3.44 3.44 0 0 1 2.94-1.11c-1.78.07-2.65 1.42-3.1 2.51-.26.64-.67.64-.5-.03Z"/>
  <path fill="url(#i)" d="M181.1 53.8c.23-.73.77-1.28 1.41-1.52.61-.23.97.5.84 1.14a6.2 6.2 0 0 0-.07 2.14c.1.6-.25 1.28-.82 1.1-1.14-.36-1.74-1.64-1.36-2.86Z"/>
  <path fill="url(#j)" d="M170.12 70.22c.9 4.48 8.82 2.03 13.37-1.84 1.03-.87.6-2.4-.72-2.69-6.16-1.3-13.55-.01-12.65 4.53Z"/>
  <path fill="url(#k)" d="M339.36 67.42c.3 3.77-8.5 3.68-14.63.98-1.24-.54-1.32-2.15-.13-2.78 6.19-3.27 14.45-2 14.75 1.8Z"/>
  <path fill="url(#l)" d="M329.46 10.54c-12.04 19.5-19.89 43.14-17.1 60.62.64 4.1 4.06 9.45 10.47 9.45 8.22 0 10.7-7.53 9.95-14.83-1.9-18.55 1.34-37.92 4.1-52.91.66-3.54-5.33-5.72-7.42-2.33Z"/>
  <path fill="url(#m)" d="M329.02 11.46c.25-.87.92-1.66 1.57-2.07a4.03 4.03 0 0 1 3.24-.39c-1.54-.21-3.08 1.59-4.02 2.75-.4.5-.96.32-.79-.3Z"/>
  <path fill="url(#n)" d="M311.38 52.74c.27-.72.84-1.23 1.5-1.43.62-.2.93.56.76 1.19a6.28 6.28 0 0 0-.18 2.12c.05.6-.33 1.26-.9 1.05-1.1-.42-1.63-1.73-1.18-2.93Z"/>
  <path fill="url(#o)" d="M299.5 69.27c.35 5 9.45 3.28 14.89-.38 1.12-.76.88-2.35-.4-2.8-6.5-2.26-14.84-1.86-14.49 3.18Z"/>
  <path fill="url(#p)" d="M466.63 65c1.21 4.28-7.27 3.72-13.72 1.65-1.4-.45-1.62-2.2-.31-2.88 5.43-2.8 12.81-2.92 14.03 1.22Z"/>
  <path fill="url(#q)" d="M465.02 11.03c-14.42 17.82-27.1 42.23-24.67 60.25.84 6.2 4 13.28 10.36 12.42 7.66-1.03 11.7-8.89 10.72-16.16-2.62-19.41 5.28-39.23 11.05-53.12 1.1-3.43-4.96-6.48-7.46-3.39Z"/>
  <path fill="url(#r)" d="M464.1 12.72c.67-1.28 2.18-2.84 3.34-2.95.4-.04 1.49-.06 2.44.42-1.82-.5-4.05 1.77-5.27 2.9-.42.39-.76.13-.5-.37Z"/>
  <path fill="url(#s)" d="M441.9 52.25c.34-.68.97-1.13 1.64-1.26.64-.12.86.66.63 1.27a6.29 6.29 0 0 0-.42 2.09c0 .6-.46 1.22-1 .94-1.05-.54-1.44-1.9-.86-3.04Z"/>
  <path fill="url(#t)" d="M427.87 69.74c.73 5.39 9.15 2.2 14.52-2.06a1.6 1.6 0 0 0-.48-2.84c-6.76-2.2-14.7-.42-14.04 4.9Z"/>
  <path fill="url(#u)" d="M592.34 66.34c.62 4.41-7.71 2.72-13.82-.19-1.33-.63-1.32-2.4.08-2.9 5.75-2.05 13.08-1.18 13.74 3.1Z"/>
  <path fill="url(#v)" d="M599.96 13.79C583.29 29.5 567.45 52 567.45 70.19c0 6.26 2.17 13.7 8.6 13.7 7.73 0 12.78-7.25 12.78-14.58 0-19.6 10.49-38.17 18.07-51.16 1.55-3.26-4.05-7.1-6.94-4.36Z"/>
  <path fill="url(#w)" d="M598.7 15.87c.74-1.35 2.96-3.09 4.18-2.98.41.03 1.3.15 2.34.92-1.83-.77-4.66 1.53-6.04 2.48-.4.27-.72 0-.48-.42Z"/>
  <path fill="url(#x)" d="M572.13 52.1c.44-.64 1.11-1 1.8-1.04.64-.03.77.77.45 1.34a6.11 6.11 0 0 0-.7 2.02c-.09.6-.61 1.15-1.1.8-.98-.67-1.18-2.07-.46-3.12Z"/>
  <path fill="url(#y)" d="M557.29 69.3c1.11 5.72 9.63 2.3 14.84-2.22.98-.86.7-2.4-.54-2.82-7.12-2.48-15.35-.66-14.3 5.03Z"/>
  <path fill="url(#z)" d="M717.87 66.53c-.63 5.8-9.4 3.11-14.98-.95a1.64 1.64 0 0 1 .3-2.86c6.89-3.06 15.24-1.95 14.68 3.81Z"/>
  <path fill="url(#A)" d="M734.42 17.43C715.81 30.8 697.12 50.98 694.7 69c-.83 6.2.34 13.87 6.7 14.73 7.66 1.02 13.64-5.48 14.61-12.76 2.61-19.41 15.47-36.43 24.72-48.3 1.96-3.02-3.07-7.56-6.3-5.24Z"/>
  <path fill="url(#B)" d="M732.75 19.87c1.02-1.35 3.88-3.09 5.09-2.82.28.12 1.15.48 1.89 1.17-1.77-.63-5.04 1.37-6.57 2.12-.43.22-.7-.08-.41-.47Z"/>
  <path fill="url(#C)" d="M702.17 52.14a2.36 2.36 0 0 1 1.92-.78c.65.05.66.86.27 1.39a6.2 6.2 0 0 0-.95 1.9c-.17.59-.77 1.06-1.21.65-.88-.8-.9-2.21-.03-3.16Z"/>
  <path fill="url(#D)" d="M684.83 68.53c.91 5.76 9.54 2.64 14.9-1.7a1.64 1.64 0 0 0-.43-2.84c-7.03-2.72-15.32-1.19-14.47 4.54Z"/>
  <path fill="url(#E)" d="M832.79 58.74c-2.42 5.32 6.5 7.47 13.37 6.82a1.64 1.64 0 0 0 1.2-2.6c-4.36-6.16-12.12-9.46-14.57-4.22Z"/>
  <path fill="url(#F)" d="M868.04 21.23c-22.57 12.17-40.68 34.33-45.21 48.6-1.89 5.94 4.83 13.97 11.07 13.99 7.33.02 12.31-4.78 14.2-12.56 4.65-19.17 14.65-33.12 25.34-43.7 2.33-2.75-1.63-8.36-5.4-6.33Z"/>
  <path fill="url(#G)" d="M833.16 53.47c.58-.58 1.36-.8 2.07-.68.56.1.62.79.32 1.27a5.7 5.7 0 0 0-.75 1.76c-.15.67-.7 1.48-1.3 1.15a2 2 0 0 1-.46-.34c-.84-.84-.79-2.26.12-3.16Z"/>
  <path fill="url(#H)" d="M815.23 67.66c.2 5.83 9.14 3.8 15 .15a1.64 1.64 0 0 0-.08-2.87c-6.64-3.56-15.06-3.07-14.92 2.72Z"/>
  <path fill="url(#I)" d="M866.04 23.58c1.26-1.28 4.56-2.55 5.47-2.27a4.42 4.42 0 0 1 1.95 1.95c-2.02-1.17-5.46.3-7.06.85-.46.16-.7-.18-.36-.53Z"/>
  <path fill="url(#J)" d="M961.52 58.9c-3.14 4.93 5.4 8.3 12.29 8.61a1.64 1.64 0 0 0 1.55-2.41c-3.46-6.7-10.68-11.05-13.84-6.2Z"/>
  <path fill="url(#K)" d="M1001.64 26.66C977.6 35.56 956.58 55 950.11 68.5c-2.7 5.62 2.84 14.5 9.02 15.4 7.26 1.04 12.85-3.02 15.8-10.46 7.28-18.34 19.12-30.76 31.18-39.76 2.69-2.39-.44-8.5-4.47-7Z"/>
  <path fill="url(#L)" d="M963.34 53.83c.7-.43 1.52-.46 2.17-.16.52.23.41.9 0 1.3a6.1 6.1 0 0 0-1.14 1.53c-.3.61-1.04 1.27-1.54.8a2 2 0 0 1-.36-.44c-.62-1.01-.23-2.37.87-3.03Z"/>
  <path fill="url(#M)" d="M942.75 66.03c-.39 5.82 8.72 4.7 14.91 1.67a1.64 1.64 0 0 0 .21-2.87c-6.25-4.21-14.67-4.57-15.12 1.2Z"/>
  <path fill="url(#N)" d="M999.49 28.98c1.48-1.12 5.14-1.95 5.95-1.44a5.1 5.1 0 0 1 1.42 2.2c-1.88-1.1-5.44-.35-7.09-.14-.49.06-.67-.33-.28-.62Z"/>
  <path fill="url(#O)" d="M66.14 187.13c-3.71 4.5 4.35 8.9 11.15 10.03a1.63 1.63 0 0 0 1.83-2.2c-2.62-7.07-9.25-12.26-12.98-7.84Z"/>
  <path fill="url(#P)" d="M109.9 160.02c-24.96 5.9-48.18 22.62-56.25 35.23-3.36 5.25 1.05 14.75 7.07 16.38 7.08 1.92 13.13-1.42 16.96-8.45 9.46-17.32 22.73-28.2 35.79-35.66 2.97-2.04.6-8.5-3.58-7.5Z"/>
  <path fill="url(#Q)" d="M69.2 183.01a2.34 2.34 0 0 1 2.3.5c.38.36.12.94-.34 1.22a5.55 5.55 0 0 0-1.46 1.25c-.4.52-1.19 1.02-1.63.54a2 2 0 0 1-.45-.77c-.35-1.13.35-2.36 1.57-2.74Z"/>
  <path fill="url(#R)" d="M46.6 193.18c-.6 5.8 8.55 5 14.84 2.18a1.64 1.64 0 0 0 .31-2.85c-6.1-4.43-14.5-5.08-15.15.67Z"/>
  <path fill="url(#S)" d="M107.4 162.31c1.36-1.07 5.77-1.36 6.07-1.09.33.3 1.05 1.37 1.25 2.65-1.58-1.44-5.5-.97-7.07-.97-.39 0-.55-.35-.25-.59Z"/>
  <path fill="url(#T)" d="M202.72 178.92c-5.71 1.2-2.15 9.67 2.46 14.8.87.97 2.4.66 2.8-.58 2.36-7.16.41-15.36-5.26-14.22Z"/>
  <path fill="url(#U)" d="M241.91 166.74c-25.53 2.37-50.86 15.67-60.62 27.03-4.06 4.73-1.01 14.75 4.72 17.2 6.74 2.9 13.2.43 17.98-5.99 11.78-15.83 26.44-24.75 40.42-30.3 3.22-1.62 1.78-8.33-2.5-7.94Z"/>
  <path fill="url(#V)" d="M199.4 184.45c.88-.14 1.72.2 2.2.81.34.42 0 .96-.5 1.17l-.1.04c-.6.28-1.13.63-1.51.99-.48.45-1.32.85-1.7.3a2 2 0 0 1-.33-.81c-.2-1.18.67-2.3 1.94-2.5Z"/>
  <path fill="url(#W)" d="M175.57 191.4c-.92 5.77 8.25 5.49 14.7 3.04 1.22-.47 1.48-2 .47-2.83-5.83-4.78-14.19-5.9-15.17-.2Z"/>
  <path fill="url(#X)" d="M239.28 170.28c1.65-.83 5.72-1.46 6.27-1.4.2.3.6 1.37.6 2.36-1.37-.87-5.1-.4-6.73-.4-.46 0-.55-.36-.14-.56Z"/>
  <path fill="url(#Y)" d="M330.57 178.78c-5.8-.53-4.9 8.6-2.01 14.86a1.64 1.64 0 0 0 2.86.28c4.36-6.15 4.91-14.56-.85-15.14Z"/>
  <path fill="url(#Z)" d="M373.06 173c-30.54-.89-52.75 8.7-64.67 22.43-4.09 4.7-2.02 11.61 3.37 14.75 6.34 3.69 14.37 1.09 18.83-4.74 12-15.67 29.63-20.53 44.18-24.36 3.4-1.2 2.28-7.96-1.7-8.08Z"/>
  <path fill="url(#aa)" d="M328.63 185.5c1.24-.34 2.49.32 2.8 1.47.05.21-.1.41-.3.49a6.11 6.11 0 0 0-2.28 1.46c-.34.36-.87.59-1.25.27-.3-.26-.54-.61-.65-1.02-.3-1.15.45-2.35 1.69-2.68Z"/>
  <path fill="url(#ab)" d="M303.74 190.76c-1.23 5.7 7.95 5.9 14.51 3.8a1.64 1.64 0 0 0 .62-2.8c-5.57-5.08-13.86-6.65-15.13-1Z"/>
  <path fill="url(#ac)" d="M369.4 177.85c1.48-1.12 5.59-2.01 6.99-2.23.12.28.46 1.34.37 2.34-1.8-.22-5.67.47-7.19.47-.39 0-.48-.34-.17-.58Z"/>
  <path fill="url(#ad)" d="M451.3 179.78c-5.19 2.67.48 9.89 6.27 13.63 1.1.7 2.5 0 2.56-1.3.39-7.53-3.66-14.93-8.83-12.33Z"/>
  <path fill="url(#ae)" d="M503.18 179.84c-30.1-5.28-53.4 1.95-67.17 13.82-4.72 4.07-3.67 11.2 1.21 15.08 5.75 4.56 14.07 3.15 19.32-1.98 14.13-13.78 30.77-16.78 45.72-18.47 3.53-.7 4.85-7.76.92-8.45Z"/>
  <path fill="url(#af)" d="M457.94 186.95c1.27-.15 2.41.69 2.55 1.87.02.21-.15.4-.37.44a6.18 6.18 0 0 0-2.46 1.12c-.39.3-.95.45-1.27.08a2 2 0 0 1-.5-1.1c-.14-1.18.78-2.26 2.05-2.4Z"/>
  <path fill="url(#ag)" d="M432.74 190.77c-1.78 5.56 7.34 6.65 14.08 5.19a1.64 1.64 0 0 0 .88-2.73c-5.05-5.6-13.14-7.95-14.96-2.46Z"/>
  <path fill="url(#ah)" d="M498.6 185.17c1.51-.98 5.8-1.5 6.98-1.95 0 .46-.11 1.63-.46 2.28-1.3-.11-5.13.37-6.46.2-.32-.05-.34-.35-.07-.53Z"/>
  <path fill="url(#ai)" d="M577.86 179.79c-5.47 2.04-.69 9.88 4.63 14.27 1.01.83 2.48.3 2.7-1 1.26-7.43-1.9-15.25-7.33-13.27Z"/>
  <path fill="url(#aj)" d="M632.23 186.38c-29.27-8.77-53.26-4.31-68.33 5.86-5.16 3.49-4.95 10.7-.56 15.12 5.17 5.2 13.6 4.77 19.42.3 15.64-12.03 32.52-13.07 47.56-13 3.6-.28 5.73-7.13 1.91-8.28Z"/>
  <path fill="url(#ak)" d="M586.74 189.11c1.28 0 2.31.96 2.31 2.15 0 .22-.2.37-.41.4a6.17 6.17 0 0 0-2.58.81c-.42.26-1 .35-1.27-.06a2.03 2.03 0 0 1-.37-1.15c0-1.19 1.04-2.15 2.32-2.15Z"/>
  <path fill="url(#al)" d="M561.57 188.38c-2.87 5.08 5.83 8 12.72 7.95a1.64 1.64 0 0 0 1.43-2.49c-3.8-6.5-11.25-10.47-14.15-5.46Z"/>
  <path fill="url(#am)" d="M627.27 191.89c1.61-.58 5.26 0 6.7-.77-.1.43-.63 1.55-1.18 2.17-1.51 0-4.35-.35-5.53-.76-.37-.13-.36-.51.01-.64Z"/>
  <path fill="url(#an)" d="M707.63 179.02c-5.69 1.29-2 9.7 2.67 14.76.89.97 2.41.63 2.8-.62 2.26-7.19.2-15.36-5.47-14.14Z"/>
  <path fill="url(#ao)" d="M760.48 194c-27.83-12.63-52.2-11.45-68.5-3.4-5.58 2.77-6.35 9.94-2.6 14.91 4.43 5.85 12.84 6.56 19.2 2.91 17.13-9.8 34-8.56 48.9-6.46 3.59.2 6.63-6.3 3-7.95Z"/>
  <path fill="url(#ap)" d="M715.03 191.58c1.27.17 2.17 1.27 2 2.44-.02.22-.24.35-.45.34a6.03 6.03 0 0 0-2.67.46c-.45.2-1.03.21-1.25-.23a2.02 2.02 0 0 1-.2-1.2c.15-1.17 1.3-1.98 2.57-1.81Z"/>
  <path fill="url(#aq)" d="M689.2 186.47c-3.54 4.64 4.69 8.71 11.53 9.59a1.64 1.64 0 0 0 1.75-2.28c-2.9-6.96-9.73-11.89-13.29-7.31Z"/>
  <path fill="url(#ar)" d="M754.82 198.8c1.67-.36 5.22.72 6.75.14-.16.4-.84 1.45-1.47 1.99-1.5-.2-4.26-.94-5.38-1.5-.35-.18-.28-.55.1-.63Z"/>
  <path fill="url(#as)" d="M839.1 179.43c-5.61-1.57-6.38 7.57-4.68 14.26a1.64 1.64 0 0 0 2.76.79c5.41-5.26 7.49-13.42 1.93-15.05Z"/>
  <path fill="url(#at)" d="M887.78 201.1c-26.01-16.04-50.33-17.95-67.52-12.02-5.9 2.03-7.56 9.05-4.46 14.46 3.65 6.37 11.9 8.13 18.68 5.31 18.22-7.57 34.8-4.2 49.3-.23 3.55.65 7.39-5.42 4-7.51Z"/>
  <path fill="url(#au)" d="M842.98 193.71c1.14.57 1.65 1.89 1.13 2.95-.1.2-.34.25-.55.17a6.18 6.18 0 0 0-2.68-.4c-.49.05-1.04-.13-1.11-.61-.06-.4 0-.82.18-1.2.52-1.06 1.88-1.47 3.03-.9Z"/>
  <path fill="url(#av)" d="M816.88 184.94c-3.97 4.28 3.82 9.14 10.54 10.68a1.64 1.64 0 0 0 1.96-2.1c-2.2-7.2-8.52-12.78-12.5-8.58Z"/>
  <path fill="url(#aw)" d="M881.56 205.14c1.7-.13 5.08 1.38 6.68 1a6.96 6.96 0 0 1-1.71 1.78 23.12 23.12 0 0 1-5.15-2.16c-.32-.22-.2-.59.18-.62Z"/>
  <path fill="url(#ax)" d="M968.67 179.76c-5.5-1.93-8.04 6.93-7.03 13.65.2 1.29 1.66 1.81 2.68.99 5.98-4.89 9.82-12.72 4.35-14.64Z"/>
  <path fill="url(#ay)" d="M1014.22 207.94c-23.83-19.13-45.75-24.3-63.53-20.53-6.1 1.29-10.6 8.32-8.2 14.07 2.85 6.77 10.82 9.53 17.89 7.58 19.02-5.27 35.05.11 48.96 5.84 3.44 1.08 7.99-4.47 4.88-6.96Z"/>
  <path fill="url(#az)" d="M969.68 195.37c1.18.48 1.78 1.76 1.33 2.86-.08.2-.32.27-.53.2a6.27 6.27 0 0 0-2.7-.2c-.48.08-1.05-.05-1.15-.53-.1-.4-.07-.82.1-1.21.44-1.1 1.76-1.6 2.95-1.12Z"/>
  <path fill="url(#aA)" d="M943.74 186.25c-3.64 4.56 4.49 8.83 11.3 9.87 1.3.2 2.28-1.02 1.8-2.24-2.73-7.03-9.44-12.12-13.1-7.63Z"/>
  <path fill="url(#aB)" d="M1006.86 211.44c1.53 0 4.5 1.63 7.25 1.47a6.02 6.02 0 0 1-2.32 1.79c-1.43-.58-4.16-1.9-5.14-2.7-.29-.22-.16-.56.21-.56Z"/>
  <path fill="url(#aC)" d="M74.32 308.79c-5.18-2.67-8.92 5.75-8.84 12.54a1.62 1.62 0 0 0 2.51 1.36c6.6-4.02 11.48-11.25 6.33-13.9Z"/>
  <path fill="url(#aD)" d="M115.5 343.25c-20.96-22.23-41.96-30.37-60.1-29.09-6.22.44-11.64 6.78-10.05 12.81 1.88 7.1 9.4 10.94 16.67 9.97 19.56-2.6 34.7 4.95 47.69 12.53 3.25 1.55 8.53-3.32 5.8-6.22Z"/>
  <path fill="url(#aE)" d="M72.74 325.87c1.11.64 1.53 1.99.93 3.02-.1.19-.35.22-.55.13a6.16 6.16 0 0 0-2.65-.58c-.49.02-1.03-.2-1.07-.69-.03-.4.05-.81.26-1.18.6-1.03 1.98-1.34 3.08-.7Z"/>
  <path fill="url(#aF)" d="M47.03 312.97c-4.23 4.02 3.23 9.36 9.84 11.33 1.26.37 2.4-.7 2.1-1.96-1.74-7.34-7.7-13.31-11.94-9.37Z"/>
  <path fill="url(#aG)" d="M107.52 346.2c1.54.5 4.63 2.28 6.84 2.28-.64.61-2 1.22-2.95 1.27a25.04 25.04 0 0 1-4.23-3.08c-.31-.32-.08-.62.33-.48Z"/>
  <path fill="url(#aH)" d="M205.6 310.77c-4.19-4.05-10.2 2.93-12.09 9.46-.36 1.26.75 2.35 2.02 2.02 7.47-1.94 14.24-7.45 10.07-11.48Z"/>
  <path fill="url(#aI)" d="M239.08 348.89c-18.12-24.61-35.89-35.46-54.05-36.39-6.22-.32-13.22 5.98-12.37 12.15 1 7.27 6.87 12.14 14.2 12.07 19.73-.2 33.9 9.34 45.88 18.44 3.6 2.38 9.48-2 6.34-6.27Z"/>
  <path fill="url(#aJ)" d="M199.98 326.88c.27.2.49.45.65.73.29.49-.17 1-.74 1.11l-.36.09a5.8 5.8 0 0 0-1.47.6c-.52.32-1.27.38-1.48-.19a2.1 2.1 0 0 1 .26-2.02c.71-.94 2.12-1.09 3.14-.32Z"/>
  <path fill="url(#aK)" d="M174.23 313.93c-3.89 4.35 3.99 9.06 10.74 10.48a1.64 1.64 0 0 0 1.92-2.13c-2.33-7.16-8.75-12.63-12.66-8.35Z"/>
  <path fill="url(#aL)" d="M231.03 351.79c1.49.69 4.11 2.92 6.6 3.3-.94.62-2.21.82-3.17.72a17.03 17.03 0 0 1-3.85-3.56c-.26-.36.02-.65.42-.46Z"/>
  <path fill="url(#aM)" d="M336.58 314.03c-3.58-4.6-10.5 1.48-13.3 7.68a1.62 1.62 0 0 0 1.72 2.28c7.67-.88 15.14-5.39 11.58-9.96Z"/>
  <path fill="url(#aN)" d="M362.56 355.18c-14.5-26.9-30.44-41.11-48.29-44.57-6.12-1.19-14.07 5.06-14.09 11.3-.02 7.33 5.24 11.98 12.52 12.93 19.57 2.56 32.12 14.98 42.7 25.67 3.24 2.85 9.68-.67 7.16-5.33Z"/>
  <path fill="url(#aO)" d="M326.92 327.92c.25.24.43.52.54.81.22.53-.3.97-.88 1a6.89 6.89 0 0 0-1.91.44c-.56.23-1.31.19-1.44-.4a2.1 2.1 0 0 1 .54-1.96c.84-.84 2.25-.8 3.15.11Z"/>
  <path fill="url(#aP)" d="M302.7 311.63c-4.04 4.21 3.67 9.2 10.37 10.84 1.27.3 2.36-.8 2-2.07-2.1-7.24-8.33-12.91-12.38-8.77Z"/>
  <path fill="url(#aQ)" d="M354.33 357.29c1.29 1.17 3.53 3.41 5.93 3.83-1.02.48-2.3.5-3.24.27-1.07-.9-2.5-2.66-3.16-3.8-.3-.49.05-.7.47-.3Z"/>
  <path fill="url(#aR)" d="M463.8 312.62c-2.77-3.26-10.17 2.18-12.9 8.26-.53 1.2.47 2.39 1.76 2.19 7.63-1.2 14.9-6.03 11.15-10.45Z"/>
  <path fill="url(#aS)" d="M485.95 360.82c-10.43-25.37-24.29-41.25-35.77-48.73-7.5-4.88-17.72-3.1-20.99 2.17-3.86 6.23-.55 16 5.9 18.85 17.96 7.96 33.36 19.83 43.85 31.41 2.42 2.67 8.53-.02 7.01-3.7Z"/>
  <path fill="url(#aT)" d="M453.37 328.75c.44.74-.4 1.4-1.26 1.55l-.29.05a5.7 5.7 0 0 0-1.74.68c-.13.09-.31.07-.4-.07a2.17 2.17 0 0 1 .71-2.98 2.17 2.17 0 0 1 2.98.76Z"/>
  <path fill="url(#aU)" d="M428 313.59c-3.08 4.95 5.49 8.24 12.38 8.47a1.6 1.6 0 0 0 1.5-2.4c-3.7-6.43-11.63-9.68-13.88-6.07Z"/>
  <path fill="url(#aV)" d="M477.43 361.19c1.26 1.3 3.61 3.82 6.15 4.01-.82.32-2.84.82-4-.31a14.88 14.88 0 0 1-2.67-3.44c-.25-.5.12-.67.52-.26Z"/>
  <path fill="url(#aW)" d="M591.85 313.81c-2.3-3.63-10.4.71-13.95 6.34-.7 1.1.12 2.43 1.43 2.41 7.72-.1 15.6-3.85 12.51-8.75Z"/>
  <path fill="url(#aX)" d="M607.76 365.8c-6.72-26.6-16.49-44.13-26.79-53.17-6.73-5.9-18.8-5.74-22.77-1-4.72 5.63-.86 14.82 4.75 19.08 15.44 11.75 28.6 24.8 37.34 37.76 2.01 2.98 8.44 1.2 7.47-2.67Z"/>
  <path fill="url(#aY)" d="M578.51 329.46c.47.82-.49 1.5-1.42 1.68l-.15.03a5.7 5.7 0 0 0-1.48.54c-.24.13-.56.1-.69-.14a2.17 2.17 0 0 1 .8-2.97 2.17 2.17 0 0 1 2.94.86Z"/>
  <path fill="url(#aZ)" d="M553.41 313.55c-3.07 4.96 5.5 8.24 12.4 8.46a1.59 1.59 0 0 0 1.48-2.4c-3.7-6.43-11.63-9.67-13.88-6.06Z"/>
  <path fill="url(#ba)" d="M598.94 365.11c1.03 1.45 2.9 4.24 5.38 4.78-.86.2-2.87.12-3.86-1.17a14.84 14.84 0 0 1-2.05-3.43c-.2-.52.2-.64.53-.18Z"/>
  <path fill="url(#bb)" d="M719.76 313.27c-2.04-3.65-10.46.46-13.67 5.9-.63 1.06.17 2.3 1.41 2.3 7.72-.03 14.35-4.46 12.26-8.2Z"/>
  <path fill="url(#bc)" d="M728.75 368.7c-3.31-27.22-11.66-42.87-17.98-54.24-4.53-8.14-16.03-10.28-20.6-7.3-7.48 4.87-6.5 15.6-1.2 20.53a152.53 152.53 0 0 1 31.96 42.74c1.62 3.22 8.3 2.23 7.82-1.72Z"/>
  <path fill="url(#bd)" d="M703.12 328.8c.75.5.34 1.52-.25 2.2l-.1.11c-.1.1-.18.22-.26.32-.56.76-1.53 1.4-2.15.7a2.2 2.2 0 0 1-.55-1.58 2.17 2.17 0 0 1 2.26-2.09c.39.03.75.15 1.05.35Z"/>
  <path fill="url(#be)" d="M679.43 312.55c-2.8 5.12 5.94 7.92 12.83 7.77a1.61 1.61 0 0 0 1.36-2.5c-4.04-6.2-12.15-9-14.19-5.27Z"/>
  <path fill="url(#bf)" d="M720.03 366.92c.84 1.57 2.34 4.57 4.73 5.43-.88.09-2.85-.25-3.68-1.65a14.81 14.81 0 0 1-1.6-3.66c-.13-.55.28-.61.55-.12Z"/>
  <path fill="url(#bg)" d="M853.4 311.94c-1.16-3.88-10.26-.66-14.65 4.45-.85 1-.22 2.42 1.09 2.54 7.43.67 14.72-3.05 13.55-6.99Z"/>
  <path fill="url(#bh)" d="M850.2 371.18c.13-27.43-4.83-46.1-9.67-58.17-3.47-8.65-13.05-12.17-17.95-9.79-8.03 3.9-8.98 14.75-5.01 20.8 10.63 16.23 19.5 33.15 24.73 47.88 1.2 3.4 7.88 3.26 7.9-.72Z"/>
  <path fill="url(#bi)" d="M827.4 328.13c.87.24.8 1.34.44 2.16l-.06.14-.14.39c-.3.88-1.03 1.8-1.84 1.31a2.2 2.2 0 0 1-1-1.33 2.17 2.17 0 0 1 1.5-2.67c.38-.1.76-.1 1.1 0Z"/>
  <path fill="url(#bj)" d="M808.6 310.56c-3.2 4.87 5.27 8.39 12.15 8.8 1.31.08 2.18-1.21 1.56-2.36-3.51-6.52-11.36-9.99-13.7-6.44Z"/>
  <path fill="url(#bk)" d="M842.11 369.2c.67 1.6 1.97 4.12 4.24 5.11-1.07.13-3.3-.63-3.95-2.12-.5-1.15-.8-2.2-.92-2.97-.09-.65.38-.63.63-.03Z"/>
  <path fill="url(#bl)" d="M983.24 312.79c-.63-4-10.08-1.98-15.1 2.52-.97.87-.52 2.36.75 2.65 7.3 1.63 15-1.11 14.35-5.17Z"/>
  <path fill="url(#bm)" d="M971.15 372.53c1.36-24.47 1-44.63-1-58.62-1.33-9.22-9.1-13.06-17.72-11.1-8.61 1.96-9.93 12.18-7.94 16.85 7.59 17.86 13.52 37.37 18.54 52.35 1.15 3.42 7.9 4.5 8.12.52Z"/>
  <path fill="url(#bn)" d="M953.38 328.47c.82.35.61 1.43.15 2.2l-.08.13-.2.37c-.41.83-1.25 1.64-1.99 1.06a2.2 2.2 0 0 1 1.02-3.9c.39-.06.76 0 1.1.14Z"/>
  <path fill="url(#bo)" d="M936.47 309.53c-3.21 4.87 5.26 8.39 12.15 8.8a1.6 1.6 0 0 0 1.55-2.36c-3.51-6.53-11.35-10-13.7-6.44Z"/>
  <path fill="url(#bp)" d="M963.47 371.56c1.13 2.16 3.66 3.25 5.69 3.39-2.91.64-5.47-1.15-6.08-2.83l-.18-.58c-.18-.63.26-.56.57.01Z"/>
  <path fill="url(#bq)" d="M38.82 439.71c1.84-3.69 7.83-.1 13.15 4.55 1.23 1.09.59 3.02-1.05 3.03-8.13.04-14-3.78-12.1-7.58Z"/>
  <path fill="url(#br)" d="M89.17 439.71c-1.84-3.69-7.83-.1-13.14 4.55-1.24 1.09-.6 3.02 1.05 3.03 8.13.04 13.99-3.78 12.1-7.58Z"/>
  <path fill="url(#bs)" d="M76.44 442.2c0 21.68-7.31 42.03-8.5 58.5-.15 2-1.96 3.32-3.94 3.32s-3.92-1.32-4.06-3.32c-1.2-16.47-8.5-36.82-8.5-58.49 0-7.85 6.3-13.54 12.22-13.2l.28.03.28-.03c5.92-.35 12.22 5.34 12.22 13.2Z"/>
  <path fill="url(#bt)" d="M67.89 501.15c-.34 1.59-1.94 2.83-3.89 2.87h-.11c-1.95-.04-3.55-1.28-3.88-2.87-.11-.32.23-.18.39.11a4.02 4.02 0 0 0 7.1 0c.16-.3.5-.43.39-.11Z"/>
  <path fill="url(#bu)" d="M53.05 461c.21.18.44.31.67.4.6.24 1-.42.92-1.04a6.18 6.18 0 0 1 0-1.78c.12-.67-.18-1.54-.84-1.4-.45.1-.85.33-1.16.7-.75.9-.57 2.31.41 3.13Z"/>
  <path fill="url(#bv)" d="M75.27 460.99c-.2.18-.43.31-.66.41-.59.25-1.01-.4-.94-1.02a6.45 6.45 0 0 0-.06-1.78c-.13-.67.15-1.54.81-1.41.45.08.86.3 1.17.66.79.89.64 2.3-.32 3.14Z"/>
  <defs>
    <linearGradient id="c" x1="58.34" x2="46.15" y1="65.68" y2="73.02" gradientUnits="userSpaceOnUse">
      <stop stop-color="#636363"/>
      <stop offset="1" stop-color="#9E9E9E"/>
    </linearGradient>
    <linearGradient id="d" x1="69.56" x2="81.81" y1="65.48" y2="72.72" gradientUnits="userSpaceOnUse">
      <stop stop-color="#636363"/>
      <stop offset="1" stop-color="#9E9E9E"/>
    </linearGradient>
    <linearGradient id="e" x1="64" x2="59.45" y1="1.95" y2="69.13" gradientUnits="userSpaceOnUse">
      <stop stop-color="#5A5A5A"/>
      <stop offset="0" stop-color="#6C6C6C"/>
      <stop offset="1" stop-color="#F4F2F1"/>
    </linearGradient>
    <linearGradient id="f" x1="196.33" x2="210.18" y1="66.97" y2="70.22" gradientUnits="userSpaceOnUse">
      <stop stop-color="#636363"/>
      <stop offset="1" stop-color="#9E9E9E"/>
    </linearGradient>
    <linearGradient id="g" x1="201" x2="197.43" y1="-3.58" y2="66.47" gradientUnits="userSpaceOnUse">
      <stop stop-color="#5A5A5A"/>
      <stop offset="0" stop-color="#6C6C6C"/>
      <stop offset="1" stop-color="#F4F2F1"/>
    </linearGradient>
    <linearGradient id="h" x1="197.79" x2="200.39" y1="15.41" y2="8.94" gradientUnits="userSpaceOnUse">
      <stop stop-color="#242424"/>
      <stop offset="1" stop-color="#4D4D4D"/>
    </linearGradient>
    <linearGradient id="j" x1="182.65" x2="172.38" y1="65.69" y2="72.39" gradientUnits="userSpaceOnUse">
      <stop stop-color="#636363"/>
      <stop offset="1" stop-color="#9E9E9E"/>
    </linearGradient>
    <linearGradient id="k" x1="324.1" x2="337.81" y1="66.07" y2="69.9" gradientUnits="userSpaceOnUse">
      <stop stop-color="#636363"/>
      <stop offset="1" stop-color="#9E9E9E"/>
    </linearGradient>
    <linearGradient id="l" x1="337.26" x2="331.42" y1="-1.95" y2="66.07" gradientUnits="userSpaceOnUse">
      <stop stop-color="#5A5A5A"/>
      <stop offset="0" stop-color="#6C6C6C"/>
      <stop offset="1" stop-color="#F4F2F1"/>
    </linearGradient>
    <linearGradient id="m" x1="331.95" x2="335.34" y1="16.27" y2="10.17" gradientUnits="userSpaceOnUse">
      <stop stop-color="#242424"/>
      <stop offset="1" stop-color="#4D4D4D"/>
    </linearGradient>
    <linearGradient id="o" x1="313.66" x2="301.63" y1="66.01" y2="71.88" gradientUnits="userSpaceOnUse">
      <stop stop-color="#636363"/>
      <stop offset="1" stop-color="#9E9E9E"/>
    </linearGradient>
    <linearGradient id="p" x1="451.51" x2="465.57" y1="64.59" y2="66.63" gradientUnits="userSpaceOnUse">
      <stop stop-color="#636363"/>
      <stop offset="1" stop-color="#9E9E9E"/>
    </linearGradient>
    <linearGradient id="q" x1="474.15" x2="465.21" y1="2.3" y2="68.87" gradientUnits="userSpaceOnUse">
      <stop stop-color="#5A5A5A"/>
      <stop offset="0" stop-color="#6C6C6C"/>
      <stop offset="1" stop-color="#F4F2F1"/>
    </linearGradient>
    <linearGradient id="r" x1="467.47" x2="471.6" y1="16.81" y2="11.19" gradientUnits="userSpaceOnUse">
      <stop stop-color="#242424"/>
      <stop offset="1" stop-color="#4D4D4D"/>
    </linearGradient>
    <linearGradient id="t" x1="442.47" x2="429.89" y1="65.23" y2="71.83" gradientUnits="userSpaceOnUse">
      <stop stop-color="#636363"/>
      <stop offset="1" stop-color="#9E9E9E"/>
    </linearGradient>
    <linearGradient id="u" x1="577.41" x2="591.07" y1="63.92" y2="67.82" gradientUnits="userSpaceOnUse">
      <stop stop-color="#636363"/>
      <stop offset="1" stop-color="#9E9E9E"/>
    </linearGradient>
    <linearGradient id="v" x1="613.07" x2="588.45" y1="3.6" y2="69.07" gradientUnits="userSpaceOnUse">
      <stop stop-color="#5A5A5A"/>
      <stop offset="0" stop-color="#6C6C6C"/>
      <stop offset="1" stop-color="#F4F2F1"/>
    </linearGradient>
    <linearGradient id="w" x1="601.63" x2="606.47" y1="19.84" y2="14.83" gradientUnits="userSpaceOnUse">
      <stop stop-color="#242424"/>
      <stop offset="1" stop-color="#4D4D4D"/>
    </linearGradient>
    <linearGradient id="y" x1="571.93" x2="559.57" y1="64.59" y2="71.64" gradientUnits="userSpaceOnUse">
      <stop stop-color="#636363"/>
      <stop offset="1" stop-color="#9E9E9E"/>
    </linearGradient>
    <linearGradient id="z" x1="702.88" x2="715.79" y1="63.08" y2="69.06" gradientUnits="userSpaceOnUse">
      <stop stop-color="#636363"/>
      <stop offset="1" stop-color="#9E9E9E"/>
    </linearGradient>
    <linearGradient id="A" x1="744.95" x2="711.43" y1="10.26" y2="70.66" gradientUnits="userSpaceOnUse">
      <stop stop-color="#5A5A5A"/>
      <stop offset="0" stop-color="#6C6C6C"/>
      <stop offset="1" stop-color="#F4F2F1"/>
    </linearGradient>
    <linearGradient id="B" x1="735.27" x2="740.74" y1="23.66" y2="19.33" gradientUnits="userSpaceOnUse">
      <stop stop-color="#242424"/>
      <stop offset="1" stop-color="#4D4D4D"/>
    </linearGradient>
    <linearGradient id="D" x1="699.62" x2="687.02" y1="64.33" y2="70.95" gradientUnits="userSpaceOnUse">
      <stop stop-color="#636363"/>
      <stop offset="1" stop-color="#9E9E9E"/>
    </linearGradient>
    <linearGradient id="E" x1="847.44" x2="833.28" y1="63.41" y2="61.98" gradientUnits="userSpaceOnUse">
      <stop stop-color="#636363"/>
      <stop offset="1" stop-color="#9E9E9E"/>
    </linearGradient>
    <linearGradient id="F" x1="880.17" x2="840.23" y1="16.34" y2="74.06" gradientUnits="userSpaceOnUse">
      <stop stop-color="#5A5A5A"/>
      <stop offset="0" stop-color="#6C6C6C"/>
      <stop offset="1" stop-color="#F4F2F1"/>
    </linearGradient>
    <linearGradient id="H" x1="830.43" x2="817.11" y1="65.32" y2="70.33" gradientUnits="userSpaceOnUse">
      <stop stop-color="#636363"/>
      <stop offset="1" stop-color="#9E9E9E"/>
    </linearGradient>
    <linearGradient id="I" x1="866.85" x2="872.83" y1="26.51" y2="22.92" gradientUnits="userSpaceOnUse">
      <stop stop-color="#242424"/>
      <stop offset="1" stop-color="#4D4D4D"/>
    </linearGradient>
    <linearGradient id="J" x1="975.38" x2="961.56" y1="65.57" y2="62.17" gradientUnits="userSpaceOnUse">
      <stop stop-color="#636363"/>
      <stop offset="1" stop-color="#9E9E9E"/>
    </linearGradient>
    <linearGradient id="K" x1="1013.9" x2="967.83" y1="25.62" y2="73.66" gradientUnits="userSpaceOnUse">
      <stop stop-color="#5A5A5A"/>
      <stop offset="0" stop-color="#6C6C6C"/>
      <stop offset="1" stop-color="#F4F2F1"/>
    </linearGradient>
    <linearGradient id="M" x1="958.11" x2="944.36" y1="65.24" y2="68.88" gradientUnits="userSpaceOnUse">
      <stop stop-color="#636363"/>
      <stop offset="1" stop-color="#9E9E9E"/>
    </linearGradient>
    <linearGradient id="N" x1="999.88" x2="1006.3" y1="31.99" y2="29.27" gradientUnits="userSpaceOnUse">
      <stop stop-color="#242424"/>
      <stop offset="1" stop-color="#4D4D4D"/>
    </linearGradient>
    <linearGradient id="O" x1="79.08" x2="65.78" y1="195.43" y2="190.38" gradientUnits="userSpaceOnUse">
      <stop stop-color="#636363"/>
      <stop offset="1" stop-color="#9E9E9E"/>
    </linearGradient>
    <linearGradient id="P" x1="121.61" x2="69.83" y1="157.88" y2="201.06" gradientUnits="userSpaceOnUse">
      <stop stop-color="#5A5A5A"/>
      <stop offset="0" stop-color="#6C6C6C"/>
      <stop offset="1" stop-color="#F4F2F1"/>
    </linearGradient>
    <linearGradient id="R" x1="61.98" x2="48.1" y1="192.92" y2="196.08" gradientUnits="userSpaceOnUse">
      <stop stop-color="#636363"/>
      <stop offset="1" stop-color="#9E9E9E"/>
    </linearGradient>
    <linearGradient id="S" x1="107.38" x2="114.08" y1="164.8" y2="162.88" gradientUnits="userSpaceOnUse">
      <stop stop-color="#242424"/>
      <stop offset="1" stop-color="#4D4D4D"/>
    </linearGradient>
    <linearGradient id="T" x1="207.66" x2="200.41" y1="193.48" y2="181.24" gradientUnits="userSpaceOnUse">
      <stop stop-color="#636363"/>
      <stop offset="1" stop-color="#9E9E9E"/>
    </linearGradient>
    <linearGradient id="U" x1="254.42" x2="199.03" y1="165.09" y2="202.06" gradientUnits="userSpaceOnUse">
      <stop stop-color="#5A5A5A"/>
      <stop offset="0" stop-color="#6C6C6C"/>
      <stop offset="1" stop-color="#F4F2F1"/>
    </linearGradient>
    <linearGradient id="W" x1="190.94" x2="176.91" y1="192.03" y2="194.39" gradientUnits="userSpaceOnUse">
      <stop stop-color="#636363"/>
      <stop offset="1" stop-color="#9E9E9E"/>
    </linearGradient>
    <linearGradient id="X" x1="238.77" x2="245.68" y1="171.13" y2="170.17" gradientUnits="userSpaceOnUse">
      <stop stop-color="#242424"/>
      <stop offset="1" stop-color="#4D4D4D"/>
    </linearGradient>
    <linearGradient id="Y" x1="331.01" x2="327.69" y1="194.15" y2="180.31" gradientUnits="userSpaceOnUse">
      <stop stop-color="#636363"/>
      <stop offset="1" stop-color="#9E9E9E"/>
    </linearGradient>
    <linearGradient id="Z" x1="384.64" x2="326.03" y1="175.46" y2="200.26" gradientUnits="userSpaceOnUse">
      <stop stop-color="#5A5A5A"/>
      <stop offset="0" stop-color="#6C6C6C"/>
      <stop offset="1" stop-color="#F4F2F1"/>
    </linearGradient>
    <linearGradient id="ab" x1="319.05" x2="304.91" y1="192.19" y2="193.81" gradientUnits="userSpaceOnUse">
      <stop stop-color="#636363"/>
      <stop offset="1" stop-color="#9E9E9E"/>
    </linearGradient>
    <linearGradient id="ac" x1="369.38" x2="376.35" y1="179.22" y2="179.1" gradientUnits="userSpaceOnUse">
      <stop stop-color="#242424"/>
      <stop offset="1" stop-color="#4D4D4D"/>
    </linearGradient>
    <linearGradient id="ad" x1="459.91" x2="449.69" y1="192.52" y2="182.62" gradientUnits="userSpaceOnUse">
      <stop stop-color="#636363"/>
      <stop offset="1" stop-color="#9E9E9E"/>
    </linearGradient>
    <linearGradient id="ae" x1="516.77" x2="452.43" y1="183.15" y2="197.07" gradientUnits="userSpaceOnUse">
      <stop stop-color="#5A5A5A"/>
      <stop offset="0" stop-color="#6C6C6C"/>
      <stop offset="1" stop-color="#F4F2F1"/>
    </linearGradient>
    <linearGradient id="ag" x1="447.84" x2="433.61" y1="193.68" y2="193.92" gradientUnits="userSpaceOnUse">
      <stop stop-color="#636363"/>
      <stop offset="1" stop-color="#9E9E9E"/>
    </linearGradient>
    <linearGradient id="ah" x1="498.82" x2="505.74" y1="185.23" y2="186.12" gradientUnits="userSpaceOnUse">
      <stop stop-color="#242424"/>
      <stop offset="1" stop-color="#4D4D4D"/>
    </linearGradient>
    <linearGradient id="ai" x1="584.91" x2="575.92" y1="193.45" y2="182.42" gradientUnits="userSpaceOnUse">
      <stop stop-color="#636363"/>
      <stop offset="1" stop-color="#9E9E9E"/>
    </linearGradient>
    <linearGradient id="aj" x1="648.05" x2="579.43" y1="188.12" y2="196.42" gradientUnits="userSpaceOnUse">
      <stop stop-color="#5A5A5A"/>
      <stop offset="0" stop-color="#6C6C6C"/>
      <stop offset="1" stop-color="#F4F2F1"/>
    </linearGradient>
    <linearGradient id="al" x1="575.76" x2="561.78" y1="194.31" y2="191.64" gradientUnits="userSpaceOnUse">
      <stop stop-color="#636363"/>
      <stop offset="1" stop-color="#9E9E9E"/>
    </linearGradient>
    <linearGradient id="am" x1="627.02" x2="633.79" y1="192.37" y2="194.06" gradientUnits="userSpaceOnUse">
      <stop stop-color="#242424"/>
      <stop offset="1" stop-color="#4D4D4D"/>
    </linearGradient>
    <linearGradient id="an" x1="712.79" x2="705.36" y1="193.51" y2="181.37" gradientUnits="userSpaceOnUse">
      <stop stop-color="#636363"/>
      <stop offset="1" stop-color="#9E9E9E"/>
    </linearGradient>
    <linearGradient id="ao" x1="776.87" x2="706.93" y1="199.22" y2="199.22" gradientUnits="userSpaceOnUse">
      <stop stop-color="#5A5A5A"/>
      <stop offset="0" stop-color="#6C6C6C"/>
      <stop offset="1" stop-color="#F4F2F1"/>
    </linearGradient>
    <linearGradient id="aq" x1="702.46" x2="688.97" y1="194.25" y2="189.73" gradientUnits="userSpaceOnUse">
      <stop stop-color="#636363"/>
      <stop offset="1" stop-color="#9E9E9E"/>
    </linearGradient>
    <linearGradient id="ar" x1="754.51" x2="760.99" y1="199.25" y2="201.83" gradientUnits="userSpaceOnUse">
      <stop stop-color="#242424"/>
      <stop offset="1" stop-color="#4D4D4D"/>
    </linearGradient>
    <linearGradient id="as" x1="836.74" x2="835.99" y1="194.63" y2="180.42" gradientUnits="userSpaceOnUse">
      <stop stop-color="#636363"/>
      <stop offset="1" stop-color="#9E9E9E"/>
    </linearGradient>
    <linearGradient id="at" x1="898.53" x2="835.95" y1="210.61" y2="194.87" gradientUnits="userSpaceOnUse">
      <stop stop-color="#5A5A5A"/>
      <stop offset="0" stop-color="#6C6C6C"/>
      <stop offset="1" stop-color="#F4F2F1"/>
    </linearGradient>
    <linearGradient id="av" x1="829.31" x2="816.33" y1="193.99" y2="188.16" gradientUnits="userSpaceOnUse">
      <stop stop-color="#636363"/>
      <stop offset="1" stop-color="#9E9E9E"/>
    </linearGradient>
    <linearGradient id="aw" x1="881.2" x2="887.29" y1="205.55" y2="208.93" gradientUnits="userSpaceOnUse">
      <stop stop-color="#242424"/>
      <stop offset="1" stop-color="#4D4D4D"/>
    </linearGradient>
    <linearGradient id="ax" x1="963.84" x2="963.92" y1="194.5" y2="180.26" gradientUnits="userSpaceOnUse">
      <stop stop-color="#636363"/>
      <stop offset="1" stop-color="#9E9E9E"/>
    </linearGradient>
    <linearGradient id="ay" x1="1025.3" x2="963.95" y1="213.07" y2="198.14" gradientUnits="userSpaceOnUse">
      <stop stop-color="#5A5A5A"/>
      <stop offset="0" stop-color="#6C6C6C"/>
      <stop offset="1" stop-color="#F4F2F1"/>
    </linearGradient>
    <linearGradient id="aA" x1="956.81" x2="943.43" y1="194.35" y2="189.51" gradientUnits="userSpaceOnUse">
      <stop stop-color="#636363"/>
      <stop offset="1" stop-color="#9E9E9E"/>
    </linearGradient>
    <linearGradient id="aB" x1="1006.13" x2="1011.76" y1="211.63" y2="215.74" gradientUnits="userSpaceOnUse">
      <stop stop-color="#242424"/>
      <stop offset="1" stop-color="#4D4D4D"/>
    </linearGradient>
    <linearGradient id="aC" x1="67.5" x2="69.55" y1="322.72" y2="308.63" gradientUnits="userSpaceOnUse">
      <stop stop-color="#636363"/>
      <stop offset="1" stop-color="#9E9E9E"/>
    </linearGradient>
    <linearGradient id="aD" x1="122.96" x2="66.52" y1="354.77" y2="324.3" gradientUnits="userSpaceOnUse">
      <stop stop-color="#5A5A5A"/>
      <stop offset="0" stop-color="#6C6C6C"/>
      <stop offset="1" stop-color="#F4F2F1"/>
    </linearGradient>
    <linearGradient id="aF" x1="58.87" x2="46.28" y1="322.8" y2="316.15" gradientUnits="userSpaceOnUse">
      <stop stop-color="#636363"/>
      <stop offset="1" stop-color="#9E9E9E"/>
    </linearGradient>
    <linearGradient id="aG" x1="106.63" x2="111.65" y1="346.11" y2="350.95" gradientUnits="userSpaceOnUse">
      <stop stop-color="#242424"/>
      <stop offset="1" stop-color="#4D4D4D"/>
    </linearGradient>
    <linearGradient id="aH" x1="195.05" x2="201.07" y1="322.14" y2="309.25" gradientUnits="userSpaceOnUse">
      <stop stop-color="#636363"/>
      <stop offset="1" stop-color="#9E9E9E"/>
    </linearGradient>
    <linearGradient id="aI" x1="244.79" x2="193.88" y1="360.52" y2="322.65" gradientUnits="userSpaceOnUse">
      <stop stop-color="#5A5A5A"/>
      <stop offset="0" stop-color="#6C6C6C"/>
      <stop offset="1" stop-color="#F4F2F1"/>
    </linearGradient>
    <linearGradient id="aK" x1="186.83" x2="173.74" y1="322.75" y2="317.16" gradientUnits="userSpaceOnUse">
      <stop stop-color="#636363"/>
      <stop offset="1" stop-color="#9E9E9E"/>
    </linearGradient>
    <linearGradient id="aL" x1="230.15" x2="234.54" y1="351.62" y2="357.03" gradientUnits="userSpaceOnUse">
      <stop stop-color="#242424"/>
      <stop offset="1" stop-color="#4D4D4D"/>
    </linearGradient>
    <linearGradient id="aM" x1="324.55" x2="332.31" y1="323.81" y2="311.89" gradientUnits="userSpaceOnUse">
      <stop stop-color="#636363"/>
      <stop offset="1" stop-color="#9E9E9E"/>
    </linearGradient>
    <linearGradient id="aN" x1="364.63" x2="321.44" y1="367.65" y2="322.21" gradientUnits="userSpaceOnUse">
      <stop stop-color="#5A5A5A"/>
      <stop offset="0" stop-color="#6C6C6C"/>
      <stop offset="1" stop-color="#F4F2F1"/>
    </linearGradient>
    <linearGradient id="aP" x1="314.99" x2="302.1" y1="320.87" y2="314.84" gradientUnits="userSpaceOnUse">
      <stop stop-color="#636363"/>
      <stop offset="1" stop-color="#9E9E9E"/>
    </linearGradient>
    <linearGradient id="aQ" x1="353.35" x2="356.93" y1="356.63" y2="362.61" gradientUnits="userSpaceOnUse">
      <stop stop-color="#242424"/>
      <stop offset="1" stop-color="#4D4D4D"/>
    </linearGradient>
    <linearGradient id="aR" x1="452.2" x2="459.45" y1="322.91" y2="310.67" gradientUnits="userSpaceOnUse">
      <stop stop-color="#636363"/>
      <stop offset="1" stop-color="#9E9E9E"/>
    </linearGradient>
    <linearGradient id="aS" x1="488.51" x2="441.84" y1="371.25" y2="325.64" gradientUnits="userSpaceOnUse">
      <stop stop-color="#5A5A5A"/>
      <stop offset="0" stop-color="#6C6C6C"/>
      <stop offset="1" stop-color="#F4F2F1"/>
    </linearGradient>
    <linearGradient id="aU" x1="441.93" x2="428.08" y1="320.11" y2="316.86" gradientUnits="userSpaceOnUse">
      <stop stop-color="#636363"/>
      <stop offset="1" stop-color="#9E9E9E"/>
    </linearGradient>
    <linearGradient id="aV" x1="476.38" x2="479.17" y1="360.38" y2="366.77" gradientUnits="userSpaceOnUse">
      <stop stop-color="#242424"/>
      <stop offset="1" stop-color="#4D4D4D"/>
    </linearGradient>
    <linearGradient id="aW" x1="578.89" x2="587.81" y1="322.34" y2="311.25" gradientUnits="userSpaceOnUse">
      <stop stop-color="#636363"/>
      <stop offset="1" stop-color="#9E9E9E"/>
    </linearGradient>
    <linearGradient id="aX" x1="607.21" x2="577.79" y1="379.13" y2="321.82" gradientUnits="userSpaceOnUse">
      <stop stop-color="#5A5A5A"/>
      <stop offset="0" stop-color="#6C6C6C"/>
      <stop offset="1" stop-color="#F4F2F1"/>
    </linearGradient>
    <linearGradient id="aZ" x1="567.35" x2="553.5" y1="320.05" y2="316.82" gradientUnits="userSpaceOnUse">
      <stop stop-color="#636363"/>
      <stop offset="1" stop-color="#9E9E9E"/>
    </linearGradient>
    <linearGradient id="ba" x1="598.34" x2="600.2" y1="364.01" y2="370.73" gradientUnits="userSpaceOnUse">
      <stop stop-color="#242424"/>
      <stop offset="1" stop-color="#4D4D4D"/>
    </linearGradient>
    <linearGradient id="bb" x1="707.32" x2="715.22" y1="321.27" y2="310.55" gradientUnits="userSpaceOnUse">
      <stop stop-color="#636363"/>
      <stop offset="1" stop-color="#9E9E9E"/>
    </linearGradient>
    <linearGradient id="bc" x1="727.74" x2="707.66" y1="381.56" y2="320.47" gradientUnits="userSpaceOnUse">
      <stop stop-color="#5A5A5A"/>
      <stop offset="0" stop-color="#6C6C6C"/>
      <stop offset="1" stop-color="#F4F2F1"/>
    </linearGradient>
    <linearGradient id="be" x1="693.71" x2="679.69" y1="318.28" y2="315.81" gradientUnits="userSpaceOnUse">
      <stop stop-color="#636363"/>
      <stop offset="1" stop-color="#9E9E9E"/>
    </linearGradient>
    <linearGradient id="bf" x1="719.58" x2="720.57" y1="365.75" y2="372.65" gradientUnits="userSpaceOnUse">
      <stop stop-color="#242424"/>
      <stop offset="1" stop-color="#4D4D4D"/>
    </linearGradient>
    <linearGradient id="bg" x1="839.43" x2="849.73" y1="318.69" y2="308.87" gradientUnits="userSpaceOnUse">
      <stop stop-color="#636363"/>
      <stop offset="1" stop-color="#9E9E9E"/>
    </linearGradient>
    <linearGradient id="bh" x1="849.79" x2="834.56" y1="387.55" y2="318.11" gradientUnits="userSpaceOnUse">
      <stop stop-color="#5A5A5A"/>
      <stop offset="0" stop-color="#6C6C6C"/>
      <stop offset="1" stop-color="#F4F2F1"/>
    </linearGradient>
    <linearGradient id="bj" x1="822.36" x2="808.6" y1="317.45" y2="313.83" gradientUnits="userSpaceOnUse">
      <stop stop-color="#636363"/>
      <stop offset="1" stop-color="#9E9E9E"/>
    </linearGradient>
    <linearGradient id="bk" x1="841.54" x2="841.66" y1="367.1" y2="374.07" gradientUnits="userSpaceOnUse">
      <stop stop-color="#242424"/>
      <stop offset="1" stop-color="#4D4D4D"/>
    </linearGradient>
    <linearGradient id="bl" x1="968.52" x2="980.01" y1="317.67" y2="309.27" gradientUnits="userSpaceOnUse">
      <stop stop-color="#636363"/>
      <stop offset="1" stop-color="#9E9E9E"/>
    </linearGradient>
    <linearGradient id="bm" x1="965.64" x2="962.32" y1="386.03" y2="318.44" gradientUnits="userSpaceOnUse">
      <stop stop-color="#5A5A5A"/>
      <stop offset="0" stop-color="#6C6C6C"/>
      <stop offset="1" stop-color="#F4F2F1"/>
    </linearGradient>
    <linearGradient id="bo" x1="950.22" x2="936.46" y1="316.42" y2="312.8" gradientUnits="userSpaceOnUse">
      <stop stop-color="#636363"/>
      <stop offset="1" stop-color="#9E9E9E"/>
    </linearGradient>
    <linearGradient id="bp" x1="963.33" x2="962.54" y1="367.94" y2="374.87" gradientUnits="userSpaceOnUse">
      <stop stop-color="#242424"/>
      <stop offset="1" stop-color="#4D4D4D"/>
    </linearGradient>
    <linearGradient id="bq" x1="51.69" x2="41.6" y1="448.09" y2="438.05" gradientUnits="userSpaceOnUse">
      <stop stop-color="#636363"/>
      <stop offset="1" stop-color="#9E9E9E"/>
    </linearGradient>
    <linearGradient id="br" x1="76.31" x2="86.39" y1="448.09" y2="438.05" gradientUnits="userSpaceOnUse">
      <stop stop-color="#636363"/>
      <stop offset="1" stop-color="#9E9E9E"/>
    </linearGradient>
    <linearGradient id="bs" x1="63.94" x2="68.57" y1="513.64" y2="445.36" gradientUnits="userSpaceOnUse">
      <stop stop-color="#5A5A5A"/>
      <stop offset="0" stop-color="#6C6C6C"/>
      <stop offset="1" stop-color="#F4F2F1"/>
    </linearGradient>
    <linearGradient id="bt" x1="67.55" x2="65.69" y1="499.01" y2="505.73" gradientUnits="userSpaceOnUse">
      <stop stop-color="#242424"/>
      <stop offset="1" stop-color="#4D4D4D"/>
    </linearGradient>
    <radialGradient id="a" cx="0" cy="0" r="1" gradientTransform="matrix(-1.72287 -2.86184 -3.4111 2.06059 74.73 55.14)" gradientUnits="userSpaceOnUse">
      <stop stop-color="#121212"/>
      <stop offset="1" stop-color="#636363"/>
    </radialGradient>
    <radialGradient id="b" cx="0" cy="0" r="1" gradientTransform="matrix(1.72287 -2.86184 3.4111 2.06059 53.33 55.25)" gradientUnits="userSpaceOnUse">
      <stop stop-color="#121212"/>
      <stop offset="1" stop-color="#636363"/>
    </radialGradient>
    <radialGradient id="i" cx="0" cy="0" r="1" gradientTransform="matrix(1.0604 -3.16764 3.77713 1.27081 183.18 55.17)" gradientUnits="userSpaceOnUse">
      <stop stop-color="#121212"/>
      <stop offset="1" stop-color="#636363"/>
    </radialGradient>
    <radialGradient id="n" cx="0" cy="0" r="1" gradientTransform="matrix(1.24198 -3.10095 3.69723 1.48731 313.37 54.23)" gradientUnits="userSpaceOnUse">
      <stop stop-color="#121212"/>
      <stop offset="1" stop-color="#636363"/>
    </radialGradient>
    <radialGradient id="s" cx="0" cy="0" r="1" gradientTransform="matrix(1.57292 -2.94692 3.51287 1.88185 443.71 53.95)" gradientUnits="userSpaceOnUse">
      <stop stop-color="#121212"/>
      <stop offset="1" stop-color="#636363"/>
    </radialGradient>
    <radialGradient id="x" cx="0" cy="0" r="1" gradientTransform="matrix(1.95338 -2.70975 3.22923 2.33532 573.7 54.02)" gradientUnits="userSpaceOnUse">
      <stop stop-color="#121212"/>
      <stop offset="1" stop-color="#636363"/>
    </radialGradient>
    <radialGradient id="C" cx="0" cy="0" r="1" gradientTransform="matrix(2.29647 -2.42583 2.88989 2.74412 703.47 54.26)" gradientUnits="userSpaceOnUse">
      <stop stop-color="#121212"/>
      <stop offset="1" stop-color="#636363"/>
    </radialGradient>
    <radialGradient id="G" cx="0" cy="0" r="1" gradientTransform="matrix(2.40486 -2.31841 2.76154 2.87324 834.37 55.64)" gradientUnits="userSpaceOnUse">
      <stop stop-color="#121212"/>
      <stop offset="1" stop-color="#636363"/>
    </radialGradient>
    <radialGradient id="L" cx="0" cy="0" r="1" gradientTransform="matrix(2.89001 -1.67519 1.99329 3.45085 963.99 56.23)" gradientUnits="userSpaceOnUse">
      <stop stop-color="#121212"/>
      <stop offset="1" stop-color="#636363"/>
    </radialGradient>
    <radialGradient id="Q" cx="0" cy="0" r="1" gradientTransform="matrix(3.20675 -.9355 1.11027 3.82739 69.25 185.5)" gradientUnits="userSpaceOnUse">
      <stop stop-color="#121212"/>
      <stop offset="1" stop-color="#636363"/>
    </radialGradient>
    <radialGradient id="V" cx="0" cy="0" r="1" gradientTransform="matrix(3.30602 -.47818 .56449 3.94499 199.1 186.92)" gradientUnits="userSpaceOnUse">
      <stop stop-color="#121212"/>
      <stop offset="1" stop-color="#636363"/>
    </radialGradient>
    <radialGradient id="aa" cx="0" cy="0" r="1" gradientTransform="matrix(3.24188 -.80537 .95495 3.86907 328.6 187.98)" gradientUnits="userSpaceOnUse">
      <stop stop-color="#121212"/>
      <stop offset="1" stop-color="#636363"/>
    </radialGradient>
    <radialGradient id="af" cx="0" cy="0" r="1" gradientTransform="matrix(3.32404 -.33042 .38818 3.96623 457.54 189.4)" gradientUnits="userSpaceOnUse">
      <stop stop-color="#121212"/>
      <stop offset="1" stop-color="#636363"/>
    </radialGradient>
    <radialGradient id="ak" cx="0" cy="0" r="1" gradientTransform="matrix(3.33986 .06113 -.07898 3.98439 586.06 191.5)" gradientUnits="userSpaceOnUse">
      <stop stop-color="#121212"/>
      <stop offset="1" stop-color="#636363"/>
    </radialGradient>
    <radialGradient id="ap" cx="0" cy="0" r="1" gradientTransform="matrix(3.30115 .51068 -.61523 3.9374 714.03 193.86)" gradientUnits="userSpaceOnUse">
      <stop stop-color="#121212"/>
      <stop offset="1" stop-color="#636363"/>
    </radialGradient>
    <radialGradient id="au" cx="0" cy="0" r="1" gradientTransform="matrix(2.97081 1.52731 -1.82749 3.54146 841.3 195.56)" gradientUnits="userSpaceOnUse">
      <stop stop-color="#121212"/>
      <stop offset="1" stop-color="#636363"/>
    </radialGradient>
    <radialGradient id="az" cx="0" cy="0" r="1" gradientTransform="matrix(3.07196 1.31205 -1.57086 3.66251 968.14 197.33)" gradientUnits="userSpaceOnUse">
      <stop stop-color="#121212"/>
      <stop offset="1" stop-color="#636363"/>
    </radialGradient>
    <radialGradient id="aE" cx="0" cy="0" r="1" gradientTransform="matrix(2.86184 1.72287 -2.06059 3.4111 70.95 327.6)" gradientUnits="userSpaceOnUse">
      <stop stop-color="#121212"/>
      <stop offset="1" stop-color="#636363"/>
    </radialGradient>
    <radialGradient id="aJ" cx="0" cy="0" r="1" gradientTransform="matrix(2.63164 2.05739 -2.45927 3.13586 198 328.38)" gradientUnits="userSpaceOnUse">
      <stop stop-color="#121212"/>
      <stop offset="1" stop-color="#636363"/>
    </radialGradient>
    <radialGradient id="aO" cx="0" cy="0" r="1" gradientTransform="matrix(2.31841 2.40486 -2.87324 2.76154 324.75 329.13)" gradientUnits="userSpaceOnUse">
      <stop stop-color="#121212"/>
      <stop offset="1" stop-color="#636363"/>
    </radialGradient>
    <radialGradient id="aT" cx="0" cy="0" r="1" gradientTransform="matrix(1.67188 2.89192 -3.45314 1.98934 451.87 329.34)" gradientUnits="userSpaceOnUse">
      <stop stop-color="#121212"/>
      <stop offset="1" stop-color="#636363"/>
    </radialGradient>
    <radialGradient id="aY" cx="0" cy="0" r="1" gradientTransform="matrix(1.58864 2.93847 -3.50852 1.88995 577 330)" gradientUnits="userSpaceOnUse">
      <stop stop-color="#121212"/>
      <stop offset="1" stop-color="#636363"/>
    </radialGradient>
    <radialGradient id="bd" cx="0" cy="0" r="1" gradientTransform="matrix(-.2313 3.33185 -3.97519 -.28201 702.53 330.42)" gradientUnits="userSpaceOnUse">
      <stop stop-color="#121212"/>
      <stop offset="1" stop-color="#636363"/>
    </radialGradient>
    <radialGradient id="bi" cx="0" cy="0" r="1" gradientTransform="matrix(.80523 3.24135 -3.86907 .95496 827.35 329.84)" gradientUnits="userSpaceOnUse">
      <stop stop-color="#121212"/>
      <stop offset="1" stop-color="#636363"/>
    </radialGradient>
    <radialGradient id="bn" cx="0" cy="0" r="1" gradientTransform="matrix(.37795 3.31841 -3.96026 .445 953.1 330.16)" gradientUnits="userSpaceOnUse">
      <stop stop-color="#121212"/>
      <stop offset="1" stop-color="#636363"/>
    </radialGradient>
    <radialGradient id="bu" cx="0" cy="0" r="1" gradientTransform="matrix(2.60859 2.08654 2.48455 -3.11587 53.11 459.08)" gradientUnits="userSpaceOnUse">
      <stop stop-color="#121212"/>
      <stop offset="1" stop-color="#636363"/>
    </radialGradient>
    <radialGradient id="bv" cx="0" cy="0" r="1" gradientTransform="matrix(-2.55348 2.15364 -2.5647 -3.05024 75.16 459.06)" gradientUnits="userSpaceOnUse">
      <stop stop-color="#121212"/>
      <stop offset="1" stop-color="#636363"/>
    </radialGradient>
  </defs>
</svg>
